<svg xmlns="http://www.w3.org/2000/svg" xml:space="preserve" style="enable-background:new 0 0 500 500" viewBox="0 0 500 500"><path d="M410.246 249.133c-89.627-51.534-234.942-51.534-324.571 0-89.628 51.534-89.627 135.088.001 186.621 89.63 51.533 234.944 51.533 324.571 0 89.625-51.533 89.625-135.087-.001-186.621z" style="fill:#f5f5f5"/><ellipse cx="139.254" cy="312.646" rx="63.454" ry="36.635" style="fill:#e0e0e0"/><path d="m247.286 408.962-5.899-3.407 4.291-2.477c2.234-1.294 2.568-3.125 2.568-4.107-.002-.976-.338-2.807-2.572-4.096l-10.687-6.171c-1.185-.684-2.592-1.032-4.188-1.033-1.591.001-2.998.349-4.181 1.032l-7.21 4.164-37.259-21.512c-1.184-.683-2.589-1.03-4.181-1.031-1.588 0-2.996.347-4.186 1.032l-15.227 8.792c-1.314.76-2.177 1.51-2.73 2.379-.658 1.051-.86 2.346-.587 3.925l7.882 39.438c.458 1.981 1.942 3.708 4.413 5.133l10.687 6.171c1.186.685 2.59 1.032 4.174 1.032h.008c1.593 0 3.001-.347 4.184-1.031l30.302-17.496 8.824 5.094c1.186.685 2.59 1.032 4.191 1.032 1.585 0 2.99-.346 4.177-1.031l13.201-7.624c2.239-1.285 2.576-3.12 2.578-4.111-.002-.976-.339-2.808-2.573-4.097zm-58.68 1.687-1.771-8.882 8.577 4.952-6.806 3.93zM306.625 347.585a244.455 244.455 0 0 0-8.778-5.302 279.88 279.88 0 0 0-9.398-5.19c-3.991-2.061-8.388-3.759-13.067-5.052-4.721-1.301-9.703-1.992-14.806-2.055l-.69-.003c-4.871 0-9.921.626-15.009 1.861-5.359 1.304-10.741 3.504-15.998 6.538-5.443 3.143-9.267 6.283-11.689 9.601-2.533 3.478-3.756 6.999-3.633 10.47.124 3.466 1.488 6.791 4.046 9.878 2.326 2.814 5.365 5.442 9.054 7.827a257.298 257.298 0 0 0 8.979 5.417 254.007 254.007 0 0 0 9.194 5.072c4.001 2.066 8.399 3.765 13.067 5.052 4.721 1.304 9.703 1.994 14.807 2.055l.692.004c4.883 0 9.932-.626 15.007-1.861 5.358-1.304 10.741-3.503 15.997-6.538 5.447-3.145 9.27-6.285 11.689-9.599 2.537-3.476 3.759-7.001 3.634-10.472-.124-3.461-1.486-6.785-4.047-9.879-2.331-2.816-5.37-5.444-9.051-7.824zm-18.129 20.889c-.273.416-1.046 1.294-3.154 2.509-1.743 1.007-3.463 1.701-5.112 2.063a18.227 18.227 0 0 1-3.902.435 18.224 18.224 0 0 1-5.776-.96 32.76 32.76 0 0 1-4.897-2.132c-5.926-3.039-11.537-6.279-16.725-9.66-1.398-.872-2.533-1.758-3.372-2.629-.617-.642-1.003-1.259-1.119-1.773-.022-.099-.088-.403.344-1.061.272-.413 1.042-1.289 3.153-2.508 1.748-1.009 3.468-1.703 5.111-2.063a17.507 17.507 0 0 1 3.73-.418c.38 0 .757.014 1.128.041 1.601.119 3.191.442 4.724.96a41.718 41.718 0 0 1 4.973 2.061 236.561 236.561 0 0 1 16.747 9.67c1.421.89 2.594 1.785 3.48 2.658.595.588.957 1.151 1.046 1.629.02.118.085.471-.379 1.178zM394.57 323.926l-5.9-3.407 4.292-2.477c2.234-1.293 2.567-3.125 2.567-4.102 0-.975-.333-2.805-2.571-4.102l-10.686-6.168c-1.182-.684-2.588-1.032-4.191-1.035-1.59.003-2.996.35-4.18 1.033l-7.21 4.164-37.258-21.511c-1.183-.683-2.589-1.031-4.182-1.032-1.587 0-2.995.346-4.185 1.031l-15.226 8.791c-1.312.759-2.176 1.507-2.734 2.383-.655 1.053-.857 2.347-.585 3.924l7.883 39.438c.458 1.981 1.942 3.707 4.411 5.133l10.687 6.169c1.185.686 2.59 1.033 4.175 1.033h.008c1.59 0 2.998-.347 4.184-1.032l30.302-17.495 8.824 5.094c1.186.685 2.594 1.032 4.191 1.032 1.586 0 2.991-.347 4.176-1.032l13.201-7.623c2.235-1.283 2.576-3.117 2.579-4.116-.002-.977-.341-2.804-2.572-4.093zm-58.68 1.687-1.771-8.882 8.577 4.953-6.806 3.929z" style="fill:#e0e0e0"/><path d="m435.371 85.753-9.463-5.463c.047-.368.08-.75.08-1.161v-2.741c0-4.879-3.425-10.811-7.65-13.25-1.711-.988-3.285-1.24-4.559-.88-.692-6.933-5.505-14.776-11.35-18.151-6.321-3.649-11.445-.691-11.445 6.608v4.101c0 1.89.35 3.886.969 5.87l-7.86-4.538c-2.344-1.353-4.243-.256-4.243 2.45 0 2.706 1.9 5.997 4.243 7.35l51.279 29.606c2.344 1.353 4.243.256 4.243-2.45 0-2.707-1.9-5.998-4.244-7.351zM377.997 95.892l-6.028-3.48c.03-.235.051-.478.051-.74v-1.746c0-3.108-2.182-6.887-4.873-8.441-1.09-.629-2.093-.79-2.905-.561-.441-4.417-3.507-9.413-7.231-11.563-4.027-2.325-7.291-.441-7.291 4.209v2.613c0 1.204.223 2.476.617 3.74l-5.007-2.891c-1.493-.862-2.703-.163-2.703 1.561s1.21 3.82 2.703 4.682l32.668 18.861c1.493.862 2.703.163 2.703-1.561-.001-1.724-1.211-3.821-2.704-4.683z" style="fill:#ebebeb"/><path d="M373.82 300.748c-3.235-14.81-8.414-29.326-5.195-51.983 2.917-20.534 13.702-38.889 29.074-40.943 10.365-1.385 19.414 10.171 9.269 25.012-1.684 2.463-23.651 23.958-20.03 53.669l-2.049 19.734-11.069-5.489z" style="fill:#27debf"/><path d="M373.82 300.748c-3.235-14.81-8.414-29.326-5.195-51.983 2.917-20.534 13.702-38.889 29.074-40.943 10.365-1.385 19.414 10.171 9.269 25.012-1.684 2.463-23.651 23.958-20.03 53.669l-2.049 19.734-11.069-5.489z" style="opacity:.2"/><path d="M379.197 298.549a.672.672 0 0 0 .383-.713c-5.956-37.992 1.65-66.367 20-81.962a.67.67 0 0 0 .077-.944.661.661 0 0 0-.944-.076c-18.585 15.793-26.488 44.721-20.456 83.19a.67.67 0 0 0 .94.505z" style="fill:#fff"/><path d="M391.143 312.058c-.075-5.761 3.102-18.313 10.637-29.268 9.504-13.818 24.316-18.341 25.831-25.583 1.819-8.7-7.286-13.663-19.085-9.443-14.181 5.073-30.937 25.502-25.128 59.942l7.745 4.352z" style="fill:#455a64"/><path d="M387.266 305.974a.72.72 0 0 0 .458-.634c1.598-30.569 19.752-46.576 29.126-50.77.363-.162.525-.588.363-.951a.71.71 0 0 0-.951-.363c-10.367 4.637-28.345 20.808-29.977 52.01a.722.722 0 0 0 .981.708z" style="fill:#fff"/><path d="m244.655 401.337-13.21 7.622c-.736.433-1.648.643-2.724.643-1.076 0-1.976-.21-2.712-.643l-10.288-5.939-31.763 18.342c-.736.421-1.648.643-2.724.643-1.075 0-1.976-.222-2.724-.643l-10.685-6.172c-1.754-1.005-2.759-2.093-3.028-3.262l-7.868-39.35a3.835 3.835 0 0 1-.058-.701c0 .76-.012 10.58 0 11.059 0 .187.023.386.058.608l7.868 39.35c.269 1.169 1.274 2.256 3.028 3.262l10.685 6.172c.748.421 1.648.643 2.724.643 1.076 0 1.988-.222 2.724-.643l31.763-18.342 10.288 5.939c.736.433 1.637.643 2.712.643 1.075 0 1.987-.21 2.724-.643l13.21-7.622c.737-.433 1.111-.947 1.111-1.578v-10.966c0 .619-.374 1.145-1.111 1.578zM244.153 396.637v-10.966c0 .62-.374 1.146-1.11 1.578l-8.674 5.004 9.364 5.401c.268-.304.42-.643.42-1.017z" style="fill:#27debf"/><path d="m184.017 395.094 6.57 3.811 9.504-5.483-18.553-10.72 2.467 12.392z" style="fill:#27debf"/><path d="m184.017 395.094 6.57 3.811 9.504-5.483-18.553-10.72 2.467 12.392z" style="opacity:.35"/><path d="M244.153 396.637v-10.966c0 .62-.374 1.146-1.11 1.578l-8.674 5.004 9.364 5.401c.268-.304.42-.643.42-1.017zM244.655 401.337l-13.21 7.622c-.736.433-1.648.643-2.724.643v10.966c1.075 0 1.987-.21 2.724-.643l13.21-7.622c.737-.433 1.111-.947 1.111-1.578v-10.966c0 .619-.374 1.145-1.111 1.578z" style="opacity:.2"/><path d="m164.798 411.928-7.868-39.35a3.835 3.835 0 0 1-.058-.701c0 .76-.012 10.58 0 11.059 0 .187.023.386.058.608l7.868 39.35c.047.222.129.444.245.666v-10.966a2.53 2.53 0 0 1-.245-.666z" style="opacity:.25"/><path d="M181.234 422.005c-1.075 0-1.976-.222-2.724-.643l-10.685-6.172c-1.415-.807-2.35-1.672-2.782-2.595v10.966c.432.923 1.368 1.789 2.782 2.595l10.685 6.172c.748.421 1.648.643 2.724.643.105 0 .199 0 .304-.023v-10.966c-.105.023-.198.023-.304.023z" style="opacity:.35"/><path d="M183.958 421.362c-.667.386-1.473.596-2.42.62v10.966c.947-.023 1.753-.234 2.42-.62l31.763-18.342V403.02l-31.763 18.342z" style="opacity:.2"/><path d="m226.009 408.959-10.288-5.939v10.966l10.288 5.939c.736.433 1.637.643 2.712.643v-10.966c-1.075 0-1.976-.21-2.712-.643z" style="opacity:.35"/><path d="M231.45 408.959c-.741.427-1.649.641-2.725.64-1.075 0-1.981-.214-2.721-.641l-10.285-5.938-31.763 18.339c-.74.427-1.644.64-2.723.64-1.077.001-1.981-.214-2.721-.641l-10.688-6.171c-1.748-1.009-2.756-2.095-3.026-3.26l-7.864-39.354c-.134-.776-.066-1.378.2-1.804.271-.426.842-.893 1.715-1.398l15.225-8.79c.74-.426 1.648-.639 2.725-.64 1.075.001 1.983.215 2.721.641l38.719 22.354 8.671-5.007c.738-.427 1.648-.639 2.723-.641 1.077.002 1.982.215 2.722.642l10.688 6.17c.74.427 1.11.951 1.11 1.571 0 .623-.372 1.146-1.11 1.573l-8.671 5.007 10.283 5.937c.742.428 1.11.951 1.112 1.572-.001.622-.372 1.146-1.111 1.572l-13.206 7.627zm-31.361-15.543-18.551-10.711 3.831 19.21 14.72-8.499zM315.64 352.646c-.047 2.642-1.087 5.343-3.086 8.09-2.151 2.946-5.74 5.88-10.79 8.791-5.039 2.911-10.112 4.98-15.221 6.231-5.109 1.239-10.101 1.835-14.976 1.777-4.863-.058-9.563-.713-14.064-1.952-4.501-1.239-8.674-2.852-12.509-4.84a253.613 253.613 0 0 1-9.072-5.004 247.902 247.902 0 0 1-8.873-5.354c-3.425-2.21-6.219-4.618-8.359-7.213-2.163-2.607-3.285-5.308-3.379-8.125.059 1.742-.07 9.048 0 10.966.093 2.817 1.216 5.518 3.379 8.125 2.139 2.595 4.933 5.003 8.359 7.213a246.44 246.44 0 0 0 8.873 5.354 274.074 274.074 0 0 0 9.072 5.015c3.835 1.976 8.008 3.589 12.509 4.828 4.501 1.239 9.201 1.894 14.064 1.952 4.875.059 9.867-.538 14.976-1.777 5.109-1.251 10.182-3.32 15.221-6.231 5.05-2.911 8.639-5.845 10.79-8.791 2.151-2.946 3.18-5.834 3.074-8.639-.058-1.613.047-7.926.012-10.416z" style="fill:#27debf"/><path d="M274.258 377.477c-.9.033-1.8.068-2.691.058-4.863-.058-9.563-.713-14.064-1.952-4.501-1.239-8.674-2.852-12.509-4.84a253.613 253.613 0 0 1-9.072-5.004 247.902 247.902 0 0 1-8.873-5.354c-3.425-2.21-6.219-4.618-8.359-7.213-2.163-2.607-3.285-5.308-3.379-8.125.059 1.742-.07 9.048 0 10.966.093 2.817 1.216 5.518 3.379 8.125 2.139 2.595 4.933 5.003 8.359 7.213a246.44 246.44 0 0 0 8.873 5.354 274.074 274.074 0 0 0 9.072 5.015c3.835 1.976 8.008 3.589 12.509 4.828 4.501 1.239 9.201 1.894 14.064 1.952.892.011 1.792-.025 2.691-.058v-10.965z" style="opacity:.35"/><path d="M315.64 352.646c-.047 2.642-1.087 5.343-3.086 8.09-2.151 2.946-5.74 5.88-10.79 8.791-5.039 2.911-10.112 4.98-15.221 6.231a61.546 61.546 0 0 1-12.283 1.719v10.966a61.618 61.618 0 0 0 12.283-1.719c5.109-1.251 10.182-3.32 15.221-6.231 5.05-2.911 8.639-5.845 10.79-8.791 2.151-2.946 3.18-5.834 3.074-8.639-.058-1.614.047-7.927.012-10.417z" style="opacity:.2"/><path d="M242.282 346.824a16.13 16.13 0 0 0 1.964 1.73c.339-.222.678-.444 1.052-.666 2.022-1.157 3.998-1.952 5.951-2.385 1.952-.421 3.858-.573 5.705-.433 1.847.14 3.659.503 5.448 1.099a46.225 46.225 0 0 1 5.389 2.245 239.907 239.907 0 0 1 16.94 9.785c.713.444 1.367.9 1.963 1.344 1.438-.929 2.479-1.85 3.076-2.77.736-1.122 1.005-2.233.807-3.32-.199-1.076-.818-2.139-1.859-3.168-1.052-1.029-2.373-2.046-3.986-3.051a235.098 235.098 0 0 0-16.94-9.785 46.398 46.398 0 0 0-5.389-2.245 22.591 22.591 0 0 0-5.448-1.099c-1.847-.14-3.753.012-5.705.433-1.952.432-3.928 1.227-5.951 2.385-2.011 1.169-3.39 2.315-4.127 3.437-.736 1.122-.994 2.221-.76 3.285.245 1.075.865 2.127 1.87 3.179z" style="fill:#27debf"/><path d="M242.282 346.824a16.13 16.13 0 0 0 1.964 1.73c.339-.222.678-.444 1.052-.666 2.022-1.157 3.998-1.952 5.951-2.385 1.952-.421 3.858-.573 5.705-.433 1.847.14 3.659.503 5.448 1.099a46.225 46.225 0 0 1 5.389 2.245 239.907 239.907 0 0 1 16.94 9.785c.713.444 1.367.9 1.963 1.344 1.438-.929 2.479-1.85 3.076-2.77.736-1.122 1.005-2.233.807-3.32-.199-1.076-.818-2.139-1.859-3.168-1.052-1.029-2.373-2.046-3.986-3.051a235.098 235.098 0 0 0-16.94-9.785 46.398 46.398 0 0 0-5.389-2.245 22.591 22.591 0 0 0-5.448-1.099c-1.847-.14-3.753.012-5.705.433-1.952.432-3.928 1.227-5.951 2.385-2.011 1.169-3.39 2.315-4.127 3.437-.736 1.122-.994 2.221-.76 3.285.245 1.075.865 2.127 1.87 3.179z" style="opacity:.35"/><path d="M229.171 327.611c5.041-2.911 10.119-4.987 15.227-6.23 5.108-1.24 10.101-1.832 14.973-1.775 4.871.06 9.562.709 14.065 1.951 4.504 1.243 8.671 2.853 12.504 4.831 3.024 1.594 6.117 3.3 9.276 5.124a240.215 240.215 0 0 1 8.672 5.238c3.427 2.213 6.217 4.62 8.368 7.219 2.152 2.6 3.277 5.309 3.379 8.12.101 2.814-.924 5.697-3.074 8.645-2.153 2.949-5.749 5.881-10.79 8.791-5.041 2.911-10.117 4.986-15.226 6.229-5.106 1.242-10.099 1.833-14.973 1.775-4.872-.057-9.564-.707-14.064-1.951-4.506-1.241-8.673-2.852-12.506-4.83a251.356 251.356 0 0 1-9.073-5.007 251.607 251.607 0 0 1-8.876-5.356c-3.427-2.213-6.217-4.618-8.366-7.22-2.154-2.598-3.277-5.306-3.379-8.12-.1-2.813.925-5.695 3.074-8.644 2.153-2.949 5.748-5.88 10.789-8.79zm55.558 19.618a238.353 238.353 0 0 0-16.94-9.78 44.832 44.832 0 0 0-5.393-2.242 22.08 22.08 0 0 0-5.446-1.106c-1.847-.135-3.75.01-5.698.437-1.95.427-3.93 1.223-5.949 2.387-2.015 1.164-3.394 2.309-4.133 3.435-.739 1.126-.991 2.223-.757 3.289.238 1.068.859 2.124 1.866 3.173 1.009 1.048 2.32 2.078 3.933 3.085 5.242 3.416 10.89 6.677 16.94 9.78a35.122 35.122 0 0 0 5.294 2.299c1.778.602 3.612.962 5.494 1.076a20.703 20.703 0 0 0 5.748-.466c1.95-.427 3.934-1.222 5.949-2.387 2.018-1.164 3.394-2.309 4.133-3.435.739-1.124 1.01-2.231.807-3.318-.202-1.086-.824-2.144-1.864-3.172-1.045-1.026-2.372-2.045-3.984-3.055zM391.939 316.301l-13.21 7.622c-.736.432-1.648.643-2.724.643-1.076 0-1.976-.21-2.712-.643l-10.288-5.939-31.763 18.342c-.737.421-1.648.643-2.724.643-1.075 0-1.976-.222-2.724-.643l-10.685-6.173c-1.754-1.005-2.759-2.093-3.028-3.262l-7.868-39.35a3.835 3.835 0 0 1-.058-.701c0 .76-.012 10.58 0 11.059 0 .187.023.386.058.608l7.868 39.35c.269 1.169 1.274 2.256 3.028 3.262l10.685 6.173c.748.421 1.648.643 2.724.643 1.076 0 1.987-.222 2.724-.643l31.763-18.342 10.288 5.939c.737.432 1.637.643 2.712.643 1.075 0 1.987-.21 2.724-.643l13.21-7.622c.737-.432 1.111-.947 1.111-1.578v-10.966c0 .619-.374 1.145-1.111 1.578zM391.436 311.601v-10.966c0 .62-.374 1.146-1.111 1.578l-8.674 5.004 9.364 5.401c.269-.304.421-.643.421-1.017z" style="fill:#27debf"/><path d="m331.301 310.058 6.569 3.811 9.505-5.483-18.553-10.72 2.467 12.392z" style="fill:#27debf"/><path d="m331.301 310.058 6.569 3.811 9.505-5.483-18.553-10.72 2.467 12.392z" style="opacity:.35"/><path d="M391.436 311.601v-10.966c0 .62-.374 1.146-1.111 1.578l-8.674 5.004 9.364 5.401c.269-.304.421-.643.421-1.017zM391.939 316.301l-13.21 7.622c-.736.432-1.648.643-2.724.643v10.966c1.075 0 1.987-.21 2.724-.643l13.21-7.622c.737-.432 1.111-.947 1.111-1.578v-10.966c0 .619-.374 1.145-1.111 1.578z" style="opacity:.2"/><path d="m312.081 326.892-7.868-39.35a3.835 3.835 0 0 1-.058-.701c0 .76-.012 10.58 0 11.059 0 .187.023.386.058.608l7.868 39.35c.047.222.129.444.245.666v-10.966a2.603 2.603 0 0 1-.245-.666z" style="opacity:.25"/><path d="M328.518 336.97c-1.075 0-1.976-.222-2.724-.643l-10.685-6.173c-1.415-.807-2.35-1.672-2.782-2.595v10.966c.432.924 1.368 1.789 2.782 2.595l10.685 6.173c.748.421 1.648.643 2.724.643.105 0 .199 0 .304-.023v-10.966c-.105.023-.199.023-.304.023z" style="opacity:.35"/><path d="M331.242 336.327c-.667.386-1.473.596-2.42.62v10.966c.947-.023 1.754-.234 2.42-.62l31.763-18.342v-10.966l-31.763 18.342z" style="opacity:.2"/><path d="m373.293 323.923-10.288-5.939v10.966l10.288 5.939c.737.432 1.637.643 2.712.643v-10.966c-1.076 0-1.976-.211-2.712-.643z" style="opacity:.35"/><path d="M378.734 323.923c-.741.427-1.649.641-2.725.64-1.075 0-1.981-.214-2.721-.641l-10.285-5.938-31.763 18.339c-.74.427-1.644.64-2.723.64-1.077.001-1.981-.214-2.721-.641l-10.688-6.171c-1.748-1.009-2.756-2.095-3.026-3.26l-7.864-39.353c-.134-.776-.066-1.378.2-1.804.271-.427.842-.893 1.715-1.398l15.225-8.79c.74-.425 1.648-.639 2.725-.64 1.075.001 1.983.215 2.721.641l38.719 22.354 8.671-5.007c.738-.427 1.648-.639 2.723-.641 1.077.002 1.982.215 2.722.642l10.688 6.17c.74.427 1.11.951 1.11 1.571 0 .623-.372 1.146-1.11 1.573l-8.671 5.007 10.283 5.937c.741.428 1.11.951 1.112 1.572-.001.622-.372 1.146-1.111 1.572l-13.206 7.626zm-31.362-15.543-18.551-10.711 3.831 19.21 14.72-8.499z" style="fill:#27debf"/><path d="M310.379 409.165c.225-.131.502-.195.83-.195.327 0 .603.065.828.195l3.258 1.881c.226.13.339.29.338.479 0 .189-.112.35-.338.479l-14.566 8.41c-.226.13-.502.195-.83.194-.327.001-.604-.064-.83-.194l-19.852-11.462c-.225-.13-.338-.289-.339-.479.001-.189.113-.349.339-.478l14.321-8.269c.225-.13.502-.195.829-.195.329 0 .606.065.831.195l3.258 1.881c.225.13.336.289.337.479-.001.189-.112.35-.338.479l-9.466 5.465 3.319 1.916 8.79-5.074c.225-.13.501-.195.83-.195.327 0 .604.066.828.195l3.258 1.881c.226.13.339.29.338.479.001.19-.112.35-.338.479l-8.789 5.074 3.442 1.987 9.712-5.607zM315.233 393.586c.225-.13.503-.194.83-.194.327 0 .604.064.831.195l3.104 1.792c.225.13.336.289.337.479-.001.189-.112.35-.337.479l-2.797 1.614c-1.885 1.089-1.886 2.177 0 3.265l7.56 4.365c.226.13.339.29.338.479 0 .189-.112.35-.338.479l-3.872 2.235c-.225.131-.502.195-.83.195-.327 0-.604-.065-.83-.195l-14.32-8.268c-.227-.131-.339-.29-.339-.48.001-.189.112-.349.338-.479l3.565-2.059c.225-.13.502-.194.829-.194.328 0 .605.064.831.195l.706.407c.021-.531.22-1.072.599-1.623.379-.55 1.029-1.092 1.951-1.624l1.844-1.063zM330.107 384.999c.225-.131.503-.195.83-.195.328 0 .604.064.831.195l3.104 1.792c.226.13.337.29.337.479s-.111.35-.337.479l-2.797 1.614c-1.885 1.089-1.886 2.177 0 3.265l7.56 4.365c.226.13.339.29.338.478 0 .19-.112.35-.338.48l-3.872 2.235c-.226.131-.502.195-.83.195-.327.001-.605-.065-.829-.195l-14.32-8.268c-.227-.131-.34-.29-.34-.479.001-.189.112-.349.338-.479l3.565-2.058c.225-.13.503-.194.829-.195.328 0 .604.065.831.195l.706.408c.021-.532.221-1.073.6-1.624.379-.55 1.029-1.091 1.951-1.623l1.843-1.064zM356.537 377.617c.328.166.732.388 1.214.665.482.279.865.513 1.153.701.941.592 1.639 1.254 2.09 1.987.449.733.641 1.494.569 2.28-.073.787-.432 1.579-1.077 2.377-.645.799-1.594 1.559-2.843 2.28a16.411 16.411 0 0 1-3.948 1.642 17.9 17.9 0 0 1-4.117.621 17.03 17.03 0 0 1-3.951-.328c-1.27-.261-2.417-.663-3.441-1.207a25.65 25.65 0 0 1-1.214-.665 24.723 24.723 0 0 1-1.153-.701c-.962-.579-1.67-1.236-2.119-1.97-.451-.732-.636-1.496-.554-2.288.082-.793.441-1.591 1.076-2.395.635-.805 1.577-1.567 2.827-2.289a16.072 16.072 0 0 1 3.965-1.633 18.887 18.887 0 0 1 4.148-.621 16.351 16.351 0 0 1 3.949.329c1.259.266 2.402.671 3.426 1.215zm-8.973 7.736c.84.414 1.73.604 2.673.567a5.619 5.619 0 0 0 2.643-.763c.819-.473 1.26-.981 1.321-1.525.061-.544-.267-1.059-.983-1.544a9.747 9.747 0 0 0-.984-.639 11.696 11.696 0 0 0-1.105-.568 5.48 5.48 0 0 0-2.673-.567 5.646 5.646 0 0 0-2.645.763c-.819.474-1.26.982-1.32 1.526-.061.544.266 1.059.983 1.544a11.704 11.704 0 0 0 2.09 1.206zM364.527 365.125c.226-.13.503-.194.83-.195.328.001.605.065.831.196l3.104 1.792c.226.13.337.289.337.479 0 .189-.111.35-.337.479l-2.797 1.614c-1.885 1.089-1.886 2.177 0 3.265l7.56 4.365c.225.13.339.29.338.478 0 .19-.112.35-.338.48l-3.872 2.235c-.226.13-.502.195-.83.195-.327 0-.604-.064-.829-.195l-14.32-8.268c-.227-.131-.34-.29-.34-.479.001-.189.112-.35.338-.479l3.565-2.059c.226-.13.503-.194.829-.194.328 0 .605.064.832.195l.705.407c.021-.531.221-1.072.6-1.623.379-.55 1.029-1.091 1.951-1.624l1.843-1.064z" style="fill:#455a64"/><path d="M152.588 274.36c-4.216-.169-6.082.249-5.427 4.711.656 4.462.847 7.896.847 7.896s7.513.218 10.996-1.728c3.484-1.945-.074-10.625-6.416-10.879z" style="fill:#27debf"/><path d="M152.588 274.36c-4.216-.169-6.082.249-5.427 4.711.656 4.462.847 7.896.847 7.896s7.513.218 10.996-1.728c3.484-1.945-.074-10.625-6.416-10.879z" style="opacity:.5"/><path d="M153.264 293.518a4.247 4.247 0 0 1-4.172-5.072c1.093-5.538 2.171-9.815 3.123-13.589 1.388-5.502 2.485-9.849 3.153-15.982 1.046-9.601-1.991-18.766-5.182-24.143a4.249 4.249 0 0 1 7.306-4.336c1.888 3.181 7.924 14.702 6.322 29.399-.732 6.72-1.95 11.549-3.36 17.14-.927 3.673-1.977 7.836-3.027 13.156a4.249 4.249 0 0 1-4.163 3.427zM143.104 299.261s-.407 1.781-.029 2.488c.59 1.102 3.855 2.451 5.575 3.161 1.72.71 3.615 1.756 5.418 5.034 1.927 3.503 5.424 5.882 9.335 7.368 3.911 1.486 9.606 2.259 16.295.588 6.688-1.671 6.969-5.698 6.969-5.698s.105-3.778-1.62-4.258c-1.725-.481-41.943-8.683-41.943-8.683z" style="fill:#455a64"/><path d="M145.801 285.22a26.47 26.47 0 0 1-.81 3.517c-.963 3.173-2.552 6.438-1.887 10.523 1.099 1.958 3.391 2.697 5.114 3.461 2.315 1.027 3.975 1.707 5.631 3.708 2.973 3.591 5.807 8.133 14.792 9.299 8.984 1.166 15.523-2.102 16.992-4.735 1.469-2.633-.187-4.911-6.074-7.597-2.989-1.364-9.808-6.973-10.592-7.715-.761-.72-1.326-1.557-1.917-2.412-1.194-1.727-2.108-3.921-2.399-5.987-.273-1.93-.172-4.431.325-6.835.106-.516.363-1.052.144-1.531-.575-1.255-2.544-.923-3.628-.837-1.635.129-3.242.478-4.841.827-.518.113-1.067.242-1.443.616-.363.36-.5.883-.632 1.376a39.617 39.617 0 0 1-.669 2.237c-.17.513-.394 1.072-.881 1.304-.482.229-1.089.036-1.452-.354-.363-.391-.515-.937-.549-1.469-.035-.532.036-1.065.056-1.598.02-.51-.015-1.049-.288-1.48-.589-.929-2.084-1.073-2.461-2.106-.202-.553.025-1.201.452-1.607.427-.406 1.019-.598 1.605-.66s1.118-.043 1.757-.025l.311-1.235c-1.526-.141-2.702-.085-4.086.514-.738.319-1.562 1.004-1.872 1.765-.545 1.339-.215 2.452-.148 3.064.257 2.357-.176 3.63-.55 5.972z" style="fill:#27debf"/><path d="M145.801 285.22a26.47 26.47 0 0 1-.81 3.517c-.963 3.173-2.552 6.438-1.887 10.523 1.099 1.958 3.391 2.697 5.114 3.461 2.315 1.027 3.975 1.707 5.631 3.708 2.973 3.591 5.807 8.133 14.792 9.299 8.984 1.166 15.523-2.102 16.992-4.735 1.469-2.633-.187-4.911-6.074-7.597-2.989-1.364-9.808-6.973-10.592-7.715-.761-.72-1.326-1.557-1.917-2.412-1.194-1.727-2.108-3.921-2.399-5.987-.273-1.93-.172-4.431.325-6.835.106-.516.363-1.052.144-1.531-.575-1.255-2.544-.923-3.628-.837-1.635.129-3.242.478-4.841.827-.518.113-1.067.242-1.443.616-.363.36-.5.883-.632 1.376a39.617 39.617 0 0 1-.669 2.237c-.17.513-.394 1.072-.881 1.304-.482.229-1.089.036-1.452-.354-.363-.391-.515-.937-.549-1.469-.035-.532.036-1.065.056-1.598.02-.51-.015-1.049-.288-1.48-.589-.929-2.084-1.073-2.461-2.106-.202-.553.025-1.201.452-1.607.427-.406 1.019-.598 1.605-.66s1.118-.043 1.757-.025l.311-1.235c-1.526-.141-2.702-.085-4.086.514-.738.319-1.562 1.004-1.872 1.765-.545 1.339-.215 2.452-.148 3.064.257 2.357-.176 3.63-.55 5.972z" style="opacity:.35"/><path d="M162.679 314.172s-.459-6.372 5.997-10.238c6.456-3.866 10.665-1.935 12.809-.6 2.553 1.59 6.283 5.016 4.345 7.816-2.093 3.024-5.659 4.634-12.474 5.172-6.814.538-10.677-2.15-10.677-2.15zM153.781 290.955a.775.775 0 0 0 .643-.241c.886-.958 6.294-4.227 10.388-2.545.098-.155.269-1.149-.227-1.456-5.528-1.386-10.251 1.859-11.319 3.017a.716.716 0 0 0 .072 1.04c.129.11.284.17.443.185zM166.527 292.492c.011-.714-.407-1.349-.659-1.527-4.657-.668-9.339 2.263-10.363 3.373a.715.715 0 0 0 .074 1.039.796.796 0 0 0 1.086-.057c.858-.932 6.181-4.021 9.862-2.828zM173.583 299.418c-.07-.477-1.014-1.2-1.797-1.399-5.149-.354-9.497 3.569-10.348 4.869a.715.715 0 0 0 .244 1.013.792.792 0 0 0 .467.109.776.776 0 0 0 .594-.344c.755-1.152 5.956-5.547 10.84-4.248zM158.696 300.041a.773.773 0 0 0 .61-.316c.757-1.045 5.271-5.004 9.923-3.809.032-.408-.822-1.212-1.236-1.328-4.617-.418-9.069 3.074-9.955 4.297a.715.715 0 0 0 .195 1.023.788.788 0 0 0 .463.133z" style="fill:#fafafa"/><path d="M105.662 289.114c-4.205-.346-6.087-.007-5.62 4.479.467 4.486.515 7.924.515 7.924s7.497.534 11.059-1.264c3.562-1.797.371-10.619-5.954-11.139z" style="fill:#27debf"/><path d="M105.662 289.114c-4.205-.346-6.087-.007-5.62 4.479.467 4.486.515 7.924.515 7.924s7.497.534 11.059-1.264c3.562-1.797.371-10.619-5.954-11.139z" style="opacity:.5"/><path d="M105.532 308.283a4.246 4.246 0 0 1-3.955-5.243c1.325-5.487 2.582-9.715 3.692-13.445 1.618-5.439 2.896-9.736 3.822-15.835 1.448-9.549-1.201-18.833-4.162-24.34a4.25 4.25 0 0 1 7.483-4.025c1.753 3.257 7.299 15.022 5.081 29.639-1.014 6.683-2.434 11.456-4.078 16.983-1.081 3.631-2.305 7.746-3.578 13.017a4.252 4.252 0 0 1-4.305 3.249zM95.139 313.594s-.482 1.762-.133 2.484c.543 1.125 3.748 2.611 5.437 3.392 1.689.782 3.538 1.906 5.202 5.257 1.778 3.581 5.172 6.105 9.017 7.754 3.845 1.649 9.503 2.661 16.255 1.273 6.752-1.388 7.203-5.4 7.203-5.4s.264-3.77-1.44-4.322-41.541-10.438-41.541-10.438z" style="fill:#455a64"/><path d="M98.424 299.678a26.505 26.505 0 0 1-.957 3.48c-1.096 3.129-2.821 6.325-2.328 10.435 1.015 2.003 3.275 2.837 4.964 3.673 2.27 1.124 3.899 1.872 5.47 3.941 2.82 3.713 5.46 8.37 14.388 9.913 8.928 1.543 15.598-1.448 17.176-4.017 1.579-2.569.02-4.914-5.75-7.846-2.929-1.488-9.506-7.379-10.258-8.153-.73-.751-1.259-1.612-1.813-2.491-1.12-1.776-1.941-4.006-2.146-6.083-.191-1.94.015-4.434.612-6.816.128-.51.407-1.036.208-1.523-.522-1.278-2.503-1.029-3.59-.989-1.639.06-3.259.341-4.871.622-.523.091-1.076.197-1.468.555-.377.345-.536.861-.689 1.349a39.921 39.921 0 0 1-.763 2.207c-.191.505-.438 1.055-.935 1.265-.491.208-1.09-.009-1.436-.415-.346-.406-.475-.958-.487-1.491-.012-.533.081-1.062.123-1.594.041-.509.029-1.049-.226-1.491-.549-.953-2.037-1.16-2.37-2.208-.178-.561.075-1.199.519-1.586s1.043-.554 1.631-.592c.588-.038 1.118.004 1.756.049l.363-1.221c-1.519-.205-2.696-.198-4.104.341-.751.288-1.603.938-1.944 1.685-.601 1.315-.318 2.441-.277 3.056.16 2.368-.326 3.621-.798 5.945z" style="fill:#27debf"/><path d="M98.424 299.678a26.505 26.505 0 0 1-.957 3.48c-1.096 3.129-2.821 6.325-2.328 10.435 1.015 2.003 3.275 2.837 4.964 3.673 2.27 1.124 3.899 1.872 5.47 3.941 2.82 3.713 5.46 8.37 14.388 9.913 8.928 1.543 15.598-1.448 17.176-4.017 1.579-2.569.02-4.914-5.75-7.846-2.929-1.488-9.506-7.379-10.258-8.153-.73-.751-1.259-1.612-1.813-2.491-1.12-1.776-1.941-4.006-2.146-6.083-.191-1.94.015-4.434.612-6.816.128-.51.407-1.036.208-1.523-.522-1.278-2.503-1.029-3.59-.989-1.639.06-3.259.341-4.871.622-.523.091-1.076.197-1.468.555-.377.345-.536.861-.689 1.349a39.921 39.921 0 0 1-.763 2.207c-.191.505-.438 1.055-.935 1.265-.491.208-1.09-.009-1.436-.415-.346-.406-.475-.958-.487-1.491-.012-.533.081-1.062.123-1.594.041-.509.029-1.049-.226-1.491-.549-.953-2.037-1.16-2.37-2.208-.178-.561.075-1.199.519-1.586s1.043-.554 1.631-.592c.588-.038 1.118.004 1.756.049l.363-1.221c-1.519-.205-2.696-.198-4.104.341-.751.288-1.603.938-1.944 1.685-.601 1.315-.318 2.441-.277 3.056.16 2.368-.326 3.621-.798 5.945z" style="opacity:.35"/><path d="M114.07 329.315s-.191-6.386 6.422-9.977c6.613-3.591 10.737-1.485 12.823-.06 2.484 1.696 6.066 5.276 4.013 7.992-2.218 2.934-5.849 4.392-12.68 4.643-6.832.25-10.578-2.598-10.578-2.598zM106.156 305.745a.777.777 0 0 0 .653-.214c.925-.92 6.466-3.958 10.486-2.106.104-.15.317-1.137-.166-1.464-5.465-1.617-10.321 1.426-11.436 2.538a.715.715 0 0 0 .029 1.042.796.796 0 0 0 .434.204zM118.826 307.815c.041-.713-.35-1.365-.594-1.553-4.624-.863-9.426 1.868-10.496 2.934a.716.716 0 0 0 .03 1.042.793.793 0 0 0 .435.203.775.775 0 0 0 .652-.214c.898-.895 6.345-3.758 9.973-2.412zM125.584 315.032c-.05-.48-.963-1.241-1.736-1.473-5.13-.57-9.639 3.167-10.544 4.43a.716.716 0 0 0 .201 1.023.794.794 0 0 0 1.071-.19c.802-1.12 6.183-5.293 11.008-3.79zM110.685 315.029a.777.777 0 0 0 .623-.29c.8-1.012 5.477-4.778 10.075-3.388.049-.406-.77-1.246-1.179-1.378-4.596-.611-9.19 2.69-10.127 3.875a.716.716 0 0 0 .152 1.031.8.8 0 0 0 .456.15z" style="fill:#fafafa"/><path d="M214.064 215.395c-4.063 0-9.125-1.423-14.74-5.258a3.035 3.035 0 0 1 3.423-5.011c7.566 5.168 12.976 4.562 14.983 3.39.814-.477 1.418-1.602 1.655-3.087.474-2.966-.508-7.817-4.686-12.534-8.839-9.985-19.929-15.117-37.084-17.16a3.034 3.034 0 0 1-2.654-3.372 3.029 3.029 0 0 1 3.372-2.654c18.512 2.205 31.13 8.116 40.911 19.163 4.738 5.351 7.031 11.898 6.134 17.515-.532 3.333-2.16 5.95-4.584 7.369-1.698.99-3.986 1.639-6.73 1.639z" style="fill:#455a64"/><path d="M175.684 137.576c4.59-4.323 8.634-17.041 6.548-30.403-2.086-13.362-14.434-25.858-19.351-28.561-4.917-2.703-8.377.793-7.04 5.774 1.819 6.776 4.086 22.02-8.56 28.733 0 0 1.872 9.953 8.389 17.854 6.517 7.901 20.014 6.603 20.014 6.603z" style="fill:#27debf"/><path d="M175.684 137.576c4.59-4.323 8.634-17.041 6.548-30.403-2.086-13.362-14.434-25.858-19.351-28.561-4.917-2.703-8.377.793-7.04 5.774 1.819 6.776 4.086 22.02-8.56 28.733 0 0 1.872 9.953 8.389 17.854 6.517 7.901 20.014 6.603 20.014 6.603z" style="opacity:.75;fill:#fff"/><path d="M158.521 87.013a10.73 10.73 0 0 1-3.243-.488.607.607 0 1 1 .367-1.157c3.982 1.27 9.355-.213 10.7-4.37a.607.607 0 0 1 1.155.375c-1.211 3.74-5.158 5.64-8.979 5.64zM163.069 95.406c-3.406 0-5.769-1.342-6.684-1.86a.607.607 0 0 1 .599-1.056c1.867 1.06 4.831 2.352 9.004 1.348 5.519-1.328 6.697-4.561 6.947-5.89a.607.607 0 0 1 1.193.224c-.294 1.561-1.648 5.353-7.855 6.847-1.148.275-2.22.387-3.204.387zM169.352 105.927h-.047c-7.126-.014-11.542-3.576-13.54-5.698a.607.607 0 1 1 .884-.832c1.865 1.98 5.987 5.304 12.658 5.317h.046c7.792 0 10.107-3.66 11.097-5.225a.607.607 0 0 1 1.026.649c-1.002 1.584-3.663 5.789-12.124 5.789zM172.534 118.134a22.15 22.15 0 0 1-7.087-1.158c-5.739-1.935-9.884-5.262-12.317-9.887a.606.606 0 1 1 1.074-.566c2.315 4.402 6.12 7.445 11.632 9.303 7.607 2.563 14.868.014 16.891-1.854a.608.608 0 0 1 .823.892c-1.59 1.469-5.814 3.27-11.016 3.27z" style="fill:#27debf"/><path d="M157.193 126.732c10.884-12.435 6.676-32.024 4-37.64-3.768-7.905-2.173-11.372 1.124-10.752-4.612-2.14-7.761 1.259-6.476 6.045 1.819 6.776 4.086 22.02-8.56 28.733 0 0 1.639 8.707 7.184 16.298a25.281 25.281 0 0 0 2.728-2.684z" style="opacity:.1"/><path d="M185.678 211.349c-3.7-9.007-5.542-33.904-4.777-50.272 2.479-.519 5.512-3.899 4.286-8.269-1.102-3.928-2.172-4.446-5.484-8.687-2.365-3.028-4.008-7.035-6.127-10.279-7.275-11.142-16.527-18.575-30.142-21.778a4.21 4.21 0 0 1-3.072-5.265c.87-2.991 1.611-6.916.697-9.797-1.687-5.317-5.045-5.856-7.272-4.872-2.227.984-2.386 3.195-1.719 6.765s-.379 4.195-1.572 3.811-2.074-6.872-10.384-9.925c-8.31-3.053-13.924.953-13.785 4.384.151 3.743 2.874 4.035 8.64 4.659 2.451.265 5.057 1.297 6.715 2.981 2.319 2.355 1.034 6.34-2.192 7.059-21.134 4.71-37.538 22.32-42.178 46.08-.703 3.63-1.187 8.009-1.48 12.902h-.001s-2.117-3.979-6.662-5.096c-4.082-1.004-5.697.951-5.643 2.772.054 1.822 2.327 2.691 4.617 3.639 3.67 1.52 4.267 2.93 4.267 2.93s-3.173-.537-5.682.572c-2.509 1.108-3.166 3.822-.74 4.855 1.355.577 3.422-.457 5.552-.951 1.341-.31 3.822-.802 3.96.808l.002-.001c-.049 3.762-.016 7.7.093 11.742.307 11.411 2.306 19.225.482 29.574-1.382 7.843-8.243 14.041-1.354 20.514 3.079 2.893 6.676 3.119 9.498 2.626 2.309-.404 4.466 1.035 5.002 3.317.765 3.257 3.121 7.212 9.757 8.968 6.126 1.621 10.047-.245 12.436-2.516 1.732-1.646 4.493-1.667 6.026.166 2.548 3.046 7.277 6.317 15.827 6.275 8.534-.042 12.855-3.75 14.989-6.908 1.259-1.863 3.716-2.538 5.651-1.394 3.247 1.92 8.466 3.464 14.97-.005 4.833-2.578 6.083-7.211 6.2-10.967.076-2.464 2.303-4.391 4.74-4.017 3.73.574 7.527-.403 10.092-4.28 4.62-6.984-.899-14.004-4.233-22.12z" style="fill:#27debf"/><g style="opacity:.1"><path d="M68.142 172.16c3.67 1.52 4.267 2.93 4.267 2.93s-3.173-.537-5.682.572c-2.509 1.108-3.166 3.822-.74 4.855 1.355.577 3.422-.457 5.552-.951 1.341-.31 3.822-.802 3.96.808l.002-.001c-.049 3.762-.016 7.7.093 11.742.307 11.411 2.306 19.225.482 29.574-1.382 7.843-8.243 14.041-1.354 20.514 1.615 1.518 3.372 2.29 5.086 2.621-.205-.11-3.43-5.298.369-12.769 5.341-10.501 5.01-17.079 3.611-38.364-1.712-26.042 1.484-37.171 10.935-55.574 9.683-18.856 25.09-19.773 31.631-24.77 3.555-2.716 2.338-7.653-.771-10.782-2.612-2.629-6.692-3.693-9.097-3.942-5.269-.545-10.156-1.459-9.168-4.089-.674.829-1.025 1.748-.989 2.63.151 3.743 2.874 4.035 8.64 4.659 2.451.265 5.057 1.297 6.715 2.981 2.319 2.355 1.034 6.34-2.192 7.059-21.134 4.71-37.538 22.32-42.178 46.08-.703 3.63-1.187 8.009-1.48 12.902h-.001s-2.117-3.979-6.662-5.096c-4.082-1.004-5.697.951-5.643 2.772.051 1.822 2.325 2.691 4.614 3.639zM94.722 248.249c-2.686-3.535-4.853-4.115-8.583-3.33-.007.001-.012.005-.019.006a4.332 4.332 0 0 1 3.101 3.221c.765 3.257 3.121 7.212 9.757 8.968 4.326 1.145 7.548.547 9.912-.7-9.592 2.085-11.483-4.63-14.168-8.165zM140.795 259.809c-4.726.62-9.156-.447-14.137-4.095-5.37-3.933-7.994-3.566-11.316-2.235l-.002.001a3.832 3.832 0 0 1 2.101 1.284c2.548 3.046 7.277 6.317 15.827 6.275 3.005-.015 5.478-.49 7.527-1.23zM134.268 97.338c-.179-3.153 1.834-5.535 4.308-4.495-1.585-1.346-3.405-1.325-4.789-.714-2.227.984-2.386 3.195-1.719 6.765s-.379 4.195-1.572 3.811c-.176-.057-.348-.259-.536-.552l.001.003c.914 2.026 1.807 4.05 3.89 2.919 2.084-1.131.596-4.583.417-7.737z"/></g><path d="M114.145 169.43s1.154 4.885 6.506 4.817c5.352-.068 5.94-2.499 8.133-5.814 2.193-3.315 6.894-4.065 10.982-4.133 4.088-.068 7.913-4.707 5.722-9.404 0 0 .557 3.351-2.719 5.492s-7.635.212-11.928 2.267c-4.293 2.054-4.663 6.676-7.816 8.146-3.153 1.471-6.975.353-8.88-1.371z" style="opacity:.2"/><path d="M139.205 166.66c-.473 4.406-4.43 7.586-8.836 7.113a7.973 7.973 0 0 1-6.033-3.884c2.124-1.979 2.925-5.401 6.506-7.234 2.828-1.444 4.976-.789 7.343-.85a7.973 7.973 0 0 1 1.02 4.855z" style="fill:#455a64"/><path d="M112.448 166.973c.981 2.216 3.248 4.865 8.413 4.415 5.401-.471 4.966-6.176 9.979-8.733 4.587-2.34 7.398.832 12.209-2.449 4.344-2.963 1.883-8.81.246-10.006" style="fill:none;stroke:#455a64;stroke-width:1.2138;stroke-linecap:round;stroke-miterlimit:10"/><path d="M137.117 165.788a2.202 2.202 0 1 1-4.406-.056 2.202 2.202 0 1 1 4.406.056z" style="fill:#f5f5f5"/><path d="m180.89 161.353-.533-.275s-1.883-.128-2.954-1.118-2.275-4.231-5.698-5.064c-3.424-.833-5.339.837-9.134.998-3.796.161-5.073-2.462-5.834-4.66-.402 3.729.654 6.228 3.358 7.326 3.003 1.219 8.433-1.34 10.754 0 2.321 1.34 3.664 4.111 6.554 4.432 1.67.186 2.788-.271 3.448-.691.012-.319.025-.635.039-.948z" style="opacity:.2"/><path d="M177.403 159.96c-.935 3.641-4.418 6.154-8.278 5.741-4.224-.461-7.283-4.26-6.822-8.484.049-.449.134-.898.267-1.323 2.816-.073 5.389-2.027 9.14-.995 3.302.91 3.52 3.519 5.693 5.061z" style="fill:#455a64"/><path d="M156.889 148.714c-.768 2.146.25 4.941 2.451 6.272 4.362 2.638 7.264-1.495 12.366-.09 3.832 1.056 3.516 4.37 6.881 5.705.651.258 1.677.5 2.315.475" style="fill:none;stroke:#455a64;stroke-width:1.2138;stroke-linecap:round;stroke-miterlimit:10"/><path d="M174.072 159.55a2.058 2.058 0 1 1-4.115-.051 2.058 2.058 0 0 1 4.115.051z" style="fill:#f5f5f5"/><path d="M149.814 176.643c-10.394 4.648-19.525 13.841-23.744 23.975-2.601 6.247-1.185 11.444 2.303 12.622 6.875 2.323 14.585-8.397 22.252-12.137 7.592-3.703 13.913-.125 17.805-2.633 4.579-2.951 3.91-10.477 1.449-15.851-2.744-5.994-9.67-10.624-20.065-5.976z" style="fill:#455a64"/><path d="M168.167 198.609c-3.81-13.245-16.245-17.374-28.868-15.376-5.787 4.775-10.522 10.882-13.229 17.385-2.601 6.247-1.185 11.444 2.303 12.622 6.875 2.323 14.585-8.398 22.252-12.137 7.428-3.623 13.632-.293 17.542-2.494z" style="fill:#f28f8f"/><path d="M159.956 199.304c-12.766-3.432-21.007 7.54-25.043 7.437-4.038-.103-5.989-3.628-.393-12.586 5.545-8.876 17.606-11.392 22.847-8.775-5.226-2.577-11.619-3.169-18.068-2.148-5.787 4.775-10.522 10.882-13.229 17.385-2.601 6.247-1.184 11.444 2.303 12.622 6.875 2.323 14.585-8.398 22.252-12.137 3.404-1.659 6.545-1.856 9.331-1.798z" style="opacity:.1"/><path d="M164.858 186.623c-2.463 1.068-2.43 4.34-4.459 11.286-.142.487-.281.953-.417 1.401 3.423.078 6.306.54 8.449-.841.438-.282.819-.62 1.172-.983.497-5.27-2.139-11.993-4.745-10.863z" style="fill:#f5f5f5"/><path d="M169.603 197.487c.058-.612.069-1.244.048-1.881-.664.85-1.702 1.68-2.862 1.907-1.87.365-3.95 0-3.95 0s.645-4.062 1.278-7.552c.425-2.343 1.828-3.357 2.942-2.546-.685-.77-1.443-1.119-2.2-.79-2.463 1.068-2.43 4.34-4.459 11.286-.142.487-.281.953-.417 1.401 3.423.078 6.305.54 8.449-.841a6.876 6.876 0 0 0 1.171-.984z" style="fill:#e0e0e0"/><path d="M138.466 195.254c-2.463 1.068-2.43 4.34-4.459 11.286-.888 3.039-1.645 5.278-2.238 6.884 3.667-.706 7.518-4.007 11.433-7.179v-.001c.553-5.287-2.11-12.129-4.736-10.99z" style="fill:#f5f5f5"/><path d="M143.202 206.245c.088-.845.087-1.729.024-2.615-3.888 2.52-6.226 5.216-6.842 4.882-.618-.336-.088-3.069.178-6.076.321-3.629.771-7.386 3.182-7.123-.418-.2-.848-.246-1.279-.059-2.463 1.068-2.43 4.34-4.459 11.286-.888 3.039-1.645 5.278-2.238 6.884 3.669-.705 7.52-4.007 11.434-7.179z" style="fill:#e0e0e0"/><path d="M53.759 240.386a3.033 3.033 0 0 1-2.877-4.001c8.078-24.088 19.95-34.268 36.486-42.885a3.033 3.033 0 1 1 2.805 5.381c-15.588 8.124-26.074 17.181-33.537 39.434a3.039 3.039 0 0 1-2.877 2.071z" style="fill:#455a64"/><path d="M51.621 234.218c-1.273 3.299-3.21 4.637-5.063 6.58-1.853 1.943-3.845 3.133-5.778 6.176-1.933 3.043-2.844 8.194-2.264 10.601.328 1.361 2.213 1.376 2.323.18.41-4.433 1.148-8.251 4.262-10.63 0 0-2.109 4.278-2.388 8.183-.279 3.904.232 8.556 1.85 8.791 1.618.235 1.552-1.423 1.327-3.767-.225-2.344-.436-8.553 2.685-12.981 0 0-1.113 6.542-.002 10.714 1.111 4.172 3.276 7.164 4.475 6.651 1.198-.513 1.141-1.306-.155-4.517-1.006-2.493-.956-5.65-.701-8.325.259-2.728.885-4.637 2.718-6.54.798-.828 1.642-1.29 2.311-1.482.756-.217 2.059.219 2.757.897 1.128 1.098 2.119 2.484 2.429 4.761.285 2.1 3.755 2.293 2.463-3.613-1.292-5.905-8.562-6.94-6.738-11.758l-6.511.079zM202.675 212.13l2.764-5.357c-4.295-2.242.617-8.835-1.866-14.346s-5.154-3.288-4.131-1.432c1.109 2.012 1.319 3.756.889 5.27-.417 1.467-1.368 2.324-2.385 1.457-1.018-.868-1.659-3.73-5.37-6.88-3.368-2.859-6.555-3.415-7.947-3.418-2.897-.007-1.879 2.012-.484 2.572 5.985 2.4 6.732 3.734 8.238 5.69 1.506 1.956 1.307 3.087.524 2.853-.783-.234-1.964-1.928-5.621-3.61-3.657-1.682-7.7-1.665-8.339-.9-.638.765-.557 1.758 1.18 2.174 1.736.415 5.413 1.333 7.41 2.485 2.55 1.471 3.715 3.37 3.293 3.926-.422.556-2.599-.99-5.918-1.601-3.318-.611-5.026-.608-6.398-.076-1.023.396-.656 2.447 2.39 2.59 2.46.116 6.478 1.306 8.717 2.833 1.246.85 2.906 2.012 5.058 2.945 2.351 1.019 3.773 1.463 7.996 2.825z" style="fill:#455a64"/><path d="M103.384 131.17c3.509 1.835 9.137 11.418 2.238 21.609-6.898 10.191-16.67 9.822-21.153 9.049-2.8-1.362-17.454-7.714-18.179-27.98-.725-20.265 11.748-28.019 14.869-29.815 3.121-1.795 9.337-2.338 8.571 4.604s-1.5 13.098 3.544 17.562c3.952 3.498 10.11 4.971 10.11 4.971z" style="fill:#27debf"/><path d="M103.384 131.17c3.509 1.835 9.137 11.418 2.238 21.609-6.898 10.191-16.67 9.822-21.153 9.049-2.8-1.362-17.454-7.714-18.179-27.98-.725-20.265 11.748-28.019 14.869-29.815 3.121-1.795 9.337-2.338 8.571 4.604s-1.5 13.098 3.544 17.562c3.952 3.498 10.11 4.971 10.11 4.971z" style="opacity:.75;fill:#fff"/><path d="M77.128 157.518c-.578 0-1.075-.027-1.471-.069a.607.607 0 1 1 .131-1.207c3.046.328 12.346-.353 18.77-7.36 6.576-7.176 6.838-14.161 5.898-18.757a.608.608 0 0 1 1.19-.243c.996 4.873.729 12.267-6.195 19.821-5.929 6.468-14.207 7.815-18.323 7.815zM73.409 144.143c-3.675 0-6.393-.591-6.621-.642a.606.606 0 1 1 .265-1.184c.46.103 11.333 2.465 19.13-2.764 7.056-4.732 7.672-10.446 7.935-12.886a.619.619 0 0 1 .669-.538.606.606 0 0 1 .538.668c-.257 2.384-.939 8.717-8.466 13.763-4.292 2.879-9.441 3.583-13.45 3.583zM76.311 127.987c-5.23 0-8.647-1.645-10.385-2.783a.607.607 0 0 1 .666-1.015c2.019 1.322 6.48 3.376 13.712 2.271 5.709-.873 8.181-2.709 10.003-4.564a.607.607 0 1 1 .865.851c-1.968 2.003-4.625 3.986-10.686 4.912a27.668 27.668 0 0 1-4.175.328zM82.675 116.296c-1.133 0-2.354-.144-3.658-.484-3.209-.836-5.605-2.674-6.931-5.314a.608.608 0 0 1 1.086-.544c1.179 2.352 3.249 3.928 6.151 4.684 4.523 1.178 7.944-.22 10.017-1.601a.607.607 0 0 1 .674 1.01c-1.681 1.119-4.166 2.249-7.339 2.249z" style="fill:#27debf"/><path d="M92.383 154.598c-4.425-.403-9.961-1.656-14.753-9.005-4.792-7.349-6.283-22.653-1.908-31.877 2.877-6.066 8.633-11.63 12.778-9.772-1.854-1.726-5.272-1.101-7.341.089-3.121 1.795-15.594 9.549-14.869 29.815s15.379 26.617 18.179 27.98c4.483.772 14.255 1.142 21.153-9.049 4.619-6.824 3.62-13.37 1.404-17.505l-.004-.002c3.465 10.87-8.066 19.925-14.639 19.326z" style="opacity:.1"/><path d="M101.456 152.5s-5.212 5.746-5.257 11.275c-.023 2.801 1.996 5.364 5.257 5.364 3.262 0 5.281-2.562 5.258-5.364-.046-5.529-5.258-11.275-5.258-11.275z" style="fill:#fafafa"/><path d="m280.017 60.695-64.481 37.182c-.67.387-1.213 1.328-1.213 2.102v40.537c0 .774.546 1.709 1.22 2.09l4.347 2.437c.674.38 1.764.375 2.434-.012l64.481-37.182c.67-.387 1.213-1.328 1.213-2.102V65.21c0-.774-.546-1.709-1.22-2.09l-4.347-2.437c-.674-.38-1.763-.375-2.434.012z" style="fill:#27debf"/><path d="M221.111 144.331v-40.537c0-.774.543-1.715 1.214-2.102l64.481-37.182c.67-.387 1.213-.073 1.213.701v40.537c0 .774-.543 1.715-1.213 2.102l-64.481 37.182c-.671.386-1.214.072-1.214-.701z" style="fill:#27debf"/><path d="M222.324 145.031c-.716.41-1.826.388-2.436.014l-4.345-2.442c-.673-.376-1.222-1.312-1.222-2.085v-40.54c0-.404.151-.846.387-1.239l6.76 3.86c-.224.375-.359.807-.359 1.194v40.535c.002.709.501 1.117 1.215.703z" style="opacity:.2"/><path d="M288.003 64.99c-.095-.611-.594-.83-1.199-.482l-64.477 37.184c-.336.196-.639.527-.857.908l-6.766-3.86c.219-.364.51-.678.835-.863l64.482-37.184c.667-.387 1.754-.392 2.432-.011l4.345 2.436c.611.347 1.12 1.149 1.205 1.872z" style="opacity:.4;fill:#fff"/><path d="m214.322 114.382-9.764 9.933c-.521.53-.34 1.319.184 1.66.201.131 6.759 3.888 6.759 3.888l9.609-11.57-6.788-3.911z" style="fill:#27debf"/><path d="m214.322 114.382-9.764 9.933c-.521.53-.34 1.319.184 1.66.201.131 6.759 3.888 6.759 3.888l9.609-11.57-6.788-3.911z" style="opacity:.1"/><path d="m221.111 118.292-9.764 9.932c-.721.733-.098 1.962.919 1.816l8.845-1.277c.949.001.949-10.471 0-10.471z" style="fill:#27debf"/><path d="M229.011 115.016c.038-1.133.195-2.269.473-3.411a15.32 15.32 0 0 1 1.178-3.238 13.558 13.558 0 0 1 1.855-2.796 9.687 9.687 0 0 1 2.52-2.094c.939-.543 1.777-.813 2.511-.811.734.003 1.355.219 1.865.649.509.43.901 1.056 1.178 1.877.277.822.434 1.776.473 2.865.026.837.038 1.722.038 2.654 0 .932-.013 1.812-.038 2.64a16.818 16.818 0 0 1-.473 3.41 15.719 15.719 0 0 1-1.178 3.254 13.029 13.029 0 0 1-1.865 2.801 9.904 9.904 0 0 1-2.511 2.075c-.953.55-1.793.827-2.52.83-.729.004-1.346-.214-1.855-.654-.508-.44-.902-1.071-1.178-1.893-.278-.822-.434-1.776-.473-2.864a90.14 90.14 0 0 1 0-5.294zm8.48.249c.013-.364.027-.768.038-1.212a46.077 46.077 0 0 0 0-2.662c-.012-.419-.026-.792-.038-1.122a5.226 5.226 0 0 0-.202-1.251c-.109-.353-.264-.625-.464-.817a1.074 1.074 0 0 0-.743-.3c-.297-.006-.644.104-1.044.335-.4.23-.747.521-1.043.87-.297.35-.544.736-.743 1.159a6.502 6.502 0 0 0-.464 1.353c-.11.48-.178.975-.203 1.485-.026.352-.042.743-.049 1.173a95.46 95.46 0 0 0 0 2.662c.006.432.023.82.049 1.161.052.962.274 1.656.667 2.084.392.428.988.411 1.786-.05.798-.461 1.391-1.13 1.777-2.007.386-.88.611-1.833.676-2.861zM253.175 105.258c.013.29.02.668.02 1.133 0 .466-.007.852-.02 1.157-.026.966-.168 1.94-.424 2.922a13.97 13.97 0 0 1-1.063 2.799 11.646 11.646 0 0 1-1.632 2.414 8.497 8.497 0 0 1-2.134 1.768c-.785.454-1.497.686-2.135.697-.637.011-1.181-.165-1.632-.529-.451-.365-.805-.889-1.062-1.573-.258-.684-.399-1.495-.425-2.431-.013-.29-.019-.668-.019-1.134 0-.465.006-.851.019-1.156.013-.959.148-1.929.406-2.911s.615-1.917 1.072-2.805a12.185 12.185 0 0 1 1.641-2.435 8.378 8.378 0 0 1 2.135-1.783c.785-.453 1.496-.68 2.134-.681.638-.002 1.185.178 1.642.539.456.36.812.884 1.062 1.572.251.688.39 1.499.415 2.437zm-7.031 6.2c.039.732.216 1.219.531 1.463.315.245.731.218 1.246-.08.515-.297.93-.75 1.246-1.359.315-.608.492-1.299.531-2.076.026-.312.038-.657.038-1.033 0-.377-.013-.706-.038-.988-.038-.731-.215-1.219-.531-1.463-.316-.244-.731-.218-1.246.08-.515.297-.931.751-1.246 1.359-.315.608-.492 1.301-.531 2.076-.026.312-.038.656-.038 1.033s.012.706.038.988zM261.057 109.867c-.373.216-.702.346-.985.39a1.702 1.702 0 0 1-.734-.022 1.332 1.332 0 0 1-.521-.279 2.215 2.215 0 0 1-.347-.379v6.335c0 .218-.052.436-.155.655-.104.218-.225.367-.367.449l-2.435 1.405c-.142.082-.264.074-.367-.025-.103-.1-.154-.258-.154-.477v-19.51c0-.218.051-.435.154-.653.104-.218.225-.368.367-.45l2.338-1.349c.141-.082.263-.072.368.026.103.099.154.257.154.476v.685c.115-.265.242-.547.377-.843a5.409 5.409 0 0 1 1.236-1.71 5.66 5.66 0 0 1 1.072-.783c.58-.335 1.126-.516 1.642-.546.514-.029.966.126 1.352.469.387.341.698.871.937 1.585.238.716.369 1.65.396 2.805.013.29.019.688.019 1.194 0 .505-.006.911-.019 1.215-.027 1.185-.158 2.272-.396 3.262-.239.991-.551 1.88-.937 2.668a8.96 8.96 0 0 1-1.352 2.044c-.517.574-1.063 1.029-1.643 1.363zm.87-7.699c.038-.578.038-1.133 0-1.666-.039-.671-.188-1.19-.444-1.557-.258-.367-.689-.376-1.295-.026a2.597 2.597 0 0 0-.734.632c-.205.258-.376.54-.511.845-.136.306-.242.62-.319.942-.077.323-.129.64-.154.952-.027.313-.04.667-.04 1.063 0 .397.013.736.04 1.019.025.282.077.54.154.773.077.233.183.425.319.575.136.15.306.235.511.254.206.02.451-.052.734-.216a2.927 2.927 0 0 0 1.295-1.521 6.75 6.75 0 0 0 .444-2.069zM272.917 98.082c0-.218-.048-.359-.145-.422-.096-.063-.26-.067-.492-.013a8.354 8.354 0 0 0-.918.292c-.379.14-.853.295-1.419.463-.979.287-1.732.167-2.26-.362-.529-.527-.792-1.465-.792-2.813 0-.674.108-1.361.327-2.063a9.678 9.678 0 0 1 .918-2.047 9.738 9.738 0 0 1 1.42-1.846 8.54 8.54 0 0 1 1.854-1.442c.67-.387 1.288-.619 1.855-.699.566-.079 1.055-.044 1.468.104.411.149.737.407.975.775.238.368.37.793.396 1.273.013.211-.036.427-.145.649-.11.222-.236.373-.377.455l-2.299 1.327c-.142.082-.254.097-.337.047a2.664 2.664 0 0 0-.3-.154.996.996 0 0 0-.454-.065c-.187.009-.448.11-.783.303a2.687 2.687 0 0 0-.744.623 1.25 1.25 0 0 0-.299.811c0 .219.031.368.096.45.065.082.193.102.386.06.194-.041.465-.123.812-.245.348-.121.805-.276 1.372-.465 1.171-.379 2.024-.262 2.559.351.534.614.801 1.515.801 2.704 0 .674-.109 1.367-.328 2.078a9.169 9.169 0 0 1-.966 2.104 10.613 10.613 0 0 1-1.545 1.948 9.927 9.927 0 0 1-2.066 1.58c-.773.446-1.452.704-2.038.774-.586.071-1.079.014-1.478-.172a1.997 1.997 0 0 1-.917-.838 2.804 2.804 0 0 1-.358-1.25 1.285 1.285 0 0 1 .146-.649c.109-.221.235-.374.376-.455l2.396-1.383c.141-.081.245-.086.309-.014s.147.143.251.212c.103.07.251.103.443.101.194-.003.484-.116.871-.339a3.96 3.96 0 0 0 1.003-.817c.284-.323.426-.633.426-.931zM281.629 90.495c0 .218-.052.437-.155.655-.104.218-.225.368-.367.449l-2.434 1.405c-.142.082-.265.074-.367-.025-.104-.099-.154-.258-.154-.477V79.685c0-.218.05-.436.154-.654.103-.218.225-.368.367-.45l2.434-1.405c.141-.082.263-.072.367.027.103.099.155.258.155.476v12.816zm0 6.395c0 .218-.052.436-.155.654-.104.219-.225.368-.367.45l-2.434 1.405c-.142.082-.265.074-.367-.026-.104-.099-.154-.258-.154-.476v-3.004c0-.218.05-.435.154-.654.103-.218.225-.368.367-.45l2.434-1.405c.141-.082.263-.073.367.026.103.1.155.258.155.476v3.004z" style="fill:#455a64"/></svg>