<svg width="37" height="37" viewBox="0 0 37 37" fill="white" xmlns="http://www.w3.org/2000/svg">
<g id="ri:hotel-fill">
<path id="Vector" d="M26 28.8517H29V16.8517H20V28.8517H23V19.8517H26V28.8517ZM5 28.8517V6.35168C5 5.95386 5.15804 5.57233 5.43934 5.29102C5.72064 5.00972 6.10218 4.85168 6.5 4.85168H27.5C27.8978 4.85168 28.2794 5.00972 28.5607 5.29102C28.842 5.57233 29 5.95386 29 6.35168V13.8517H32V28.8517H33.5V31.8517H3.5V28.8517H5ZM11 16.8517V19.8517H14V16.8517H11ZM11 22.8517V25.8517H14V22.8517H11ZM11 10.8517V13.8517H14V10.8517H11Z" fill="black"/>
</g>
</svg>
