<svg width="36" height="37" viewBox="0 0 36 37" fill="none" xmlns="http://www.w3.org/2000/svg">
<g id="material-symbols:travel-explore">
<path id="Vector" d="M18 33.3517C15.925 33.3517 13.975 32.9577 12.15 32.1697C10.325 31.3817 8.7375 30.3132 7.3875 28.9642C6.0375 27.6142 4.969 26.0267 4.182 24.2017C3.395 22.3767 3.001 20.4267 3 18.3517C3 16.2767 3.394 14.3267 4.182 12.5017C4.97 10.6767 6.0385 9.08918 7.3875 7.73918C8.7375 6.38918 10.325 5.32068 12.15 4.53368C13.975 3.74668 15.925 3.35268 18 3.35168C21.65 3.35168 24.844 4.49568 27.582 6.78368C30.32 9.07168 32.026 11.9402 32.7 15.3892H29.625C29.15 13.5642 28.2935 11.9332 27.0555 10.4962C25.8175 9.05918 24.299 7.97768 22.5 7.25168V7.85168C22.5 8.67668 22.2065 9.38318 21.6195 9.97118C21.0325 10.5592 20.326 10.8527 19.5 10.8517H16.5V13.8517C16.5 14.2767 16.356 14.6332 16.068 14.9212C15.78 15.2092 15.424 15.3527 15 15.3517H12V18.3517H15V22.8517H13.5L6.3 15.6517C6.225 16.1017 6.1565 16.5517 6.0945 17.0017C6.0325 17.4517 6.001 17.9017 6 18.3517C6 21.6267 7.15 24.4392 9.45 26.7892C11.75 29.1392 14.6 30.3267 18 30.3517V33.3517ZM31.65 32.6017L26.85 27.8017C26.325 28.1017 25.7625 28.3517 25.1625 28.5517C24.5625 28.7517 23.925 28.8517 23.25 28.8517C21.375 28.8517 19.7815 28.1957 18.4695 26.8837C17.1575 25.5717 16.501 23.9777 16.5 22.1017C16.5 20.2267 17.1565 18.6332 18.4695 17.3212C19.7825 16.0092 21.376 15.3527 23.25 15.3517C25.125 15.3517 26.719 16.0082 28.032 17.3212C29.345 18.6342 30.001 20.2277 30 22.1017C30 22.7767 29.9 23.4142 29.7 24.0142C29.5 24.6142 29.25 25.1767 28.95 25.7017L33.75 30.5017L31.65 32.6017ZM23.25 25.8517C24.3 25.8517 25.1875 25.4892 25.9125 24.7642C26.6375 24.0392 27 23.1517 27 22.1017C27 21.0517 26.6375 20.1642 25.9125 19.4392C25.1875 18.7142 24.3 18.3517 23.25 18.3517C22.2 18.3517 21.3125 18.7142 20.5875 19.4392C19.8625 20.1642 19.5 21.0517 19.5 22.1017C19.5 23.1517 19.8625 24.0392 20.5875 24.7642C21.3125 25.4892 22.2 25.8517 23.25 25.8517Z" fill="black"/>
</g>
</svg>
